<?xml version="1.0" encoding="UTF-8" standalone="no"?>
<svg width="16px" height="16px" viewBox="0 0 16 16" version="1.1" xmlns="http://www.w3.org/2000/svg" xmlns:xlink="http://www.w3.org/1999/xlink">
    <!-- Generator: Sketch 3.8.3 (29802) - http://www.bohemiancoding.com/sketch -->
    <title>collection-remove</title>
    <desc>Created with Sketch.</desc>
    <defs></defs>
    <g id="Page-1" stroke="none" stroke-width="1" fill="none" fill-rule="evenodd">
        <g id="collection-remove" fill="#ADB7BF">
            <path d="M8,0 C10.2051392,0 12.0897358,0.782043462 13.6538462,2.34615385 C15.2179565,3.91026423 16,5.79486077 16,8 C16,10.2051392 15.2179565,12.0897358 13.6538462,13.6538462 C12.0897358,15.2179565 10.2051392,16 8,16 C5.79486077,16 3.91026423,15.2179565 2.34615385,13.6538462 C0.782043462,12.0897358 0,10.2051392 0,8 C0,5.79486077 0.782043462,3.91026423 2.34615385,2.34615385 C3.91026423,0.782043462 5.79486077,0 8,0 L8,0 L8,0 Z M11.609375,3.875 L12.125,4.390625 L8.515625,8 L12.125,11.609375 L11.609375,12.125 L8,8.515625 L4.390625,12.125 L3.875,11.609375 L7.484375,8 L3.875,4.390625 L4.390625,3.875 L8,7.484375 L11.609375,3.875 L11.609375,3.875 L11.609375,3.875 Z" id="Combined-Shape"></path>
        </g>
    </g>
</svg>