<?xml version="1.0" encoding="UTF-8" standalone="no"?>
<svg width="28px" height="28px" viewBox="0 0 28 28" version="1.1" xmlns="http://www.w3.org/2000/svg" xmlns:xlink="http://www.w3.org/1999/xlink">
    <!-- Generator: Sketch 3.8.3 (29802) - http://www.bohemiancoding.com/sketch -->
    <title>link</title>
    <desc>Created with Sketch.</desc>
    <defs></defs>
    <g id="Page-1" stroke="none" stroke-width="1" fill="none" fill-rule="evenodd">
        <g id="link" fill="#ADB7BF">
            <path d="M17.515625,8.5 L19.015625,8.5 L19.015625,19.515625 C19.015625,21.0468827 18.4765679,22.3437447 17.3984375,23.40625 C16.3203071,24.4687553 15.0156327,25 13.484375,25 C11.9531173,25 10.6562553,24.4687553 9.59375,23.40625 C8.53124469,22.3437447 8,21.0468827 8,19.515625 L8,7.984375 C8,6.89061953 8.39062109,5.95312891 9.171875,5.171875 C9.95312891,4.39062109 10.8906195,4 11.984375,4 C13.0781305,4 14.0234335,4.39062109 14.8203125,5.171875 C15.6171915,5.95312891 16.015625,6.89061953 16.015625,7.984375 L16.015625,19.515625 C16.015625,20.2031284 15.7734399,20.7890601 15.2890625,21.2734375 C14.8046851,21.7578149 14.2031286,22 13.484375,22 C12.7656214,22 12.1718773,21.7656273 11.703125,21.296875 C11.2343727,20.8281227 11,20.2343786 11,19.515625 L11,10 L12.5,10 L12.5,19.515625 C12.5,19.7968764 12.5937491,20.0312491 12.78125,20.21875 C12.9687509,20.4062509 13.2031236,20.5 13.484375,20.5 C13.7656264,20.5 14.0078115,20.4062509 14.2109375,20.21875 C14.4140635,20.0312491 14.515625,19.7968764 14.515625,19.515625 L14.515625,7.984375 C14.515625,7.29687156 14.2734399,6.71093992 13.7890625,6.2265625 C13.3046851,5.74218508 12.7031286,5.5 11.984375,5.5 C11.2656214,5.5 10.6718773,5.73437266 10.203125,6.203125 C9.73437266,6.67187734 9.5,7.26562141 9.5,7.984375 L9.5,19.515625 C9.5,20.6093805 9.89062109,21.5468711 10.671875,22.328125 C11.4531289,23.1093789 12.3906195,23.5 13.484375,23.5 C14.5781305,23.5 15.5234335,23.1093789 16.3203125,22.328125 C17.1171915,21.5468711 17.515625,20.6093805 17.515625,19.515625 L17.515625,8.5 Z" transform="translate(13.507812, 14.500000) rotate(-270.000000) translate(-13.507812, -14.500000) "></path>
        </g>
    </g>
</svg>