<?xml version="1.0" encoding="UTF-8"?>
<svg width="28px" height="28px" viewBox="0 0 28 28" version="1.1" xmlns="http://www.w3.org/2000/svg" xmlns:xlink="http://www.w3.org/1999/xlink">
    <!-- Generator: Sketch 39 (31667) - http://www.bohemiancoding.com/sketch -->
    <title>more</title>
    <desc>Created with Sketch.</desc>
    <defs></defs>
    <g id="Page-1" stroke="none" stroke-width="1" fill="none" fill-rule="evenodd">
        <g id="more" fill="#CECECE">
            <path d="M7.1875,12 C7.77083625,12 8.28124781,12.2187478 8.71875,12.65625 C9.15625219,13.0937522 9.375,13.6041637 9.375,14.1875 C9.375,14.7708363 9.15625219,15.2812478 8.71875,15.71875 C8.28124781,16.1562522 7.77083625,16.375 7.1875,16.375 C6.60416375,16.375 6.09375219,16.1562522 5.65625,15.71875 C5.21874781,15.2812478 5,14.7708363 5,14.1875 C5,13.6041637 5.21874781,13.0937522 5.65625,12.65625 C6.09375219,12.2187478 6.60416375,12 7.1875,12 L7.1875,12 Z M20.3125,12 C20.8958363,12 21.4062478,12.2187478 21.84375,12.65625 C22.2812522,13.0937522 22.5,13.6041637 22.5,14.1875 C22.5,14.7708363 22.2812522,15.2812478 21.84375,15.71875 C21.4062478,16.1562522 20.8958363,16.375 20.3125,16.375 C19.7291637,16.375 19.2187522,16.1562522 18.78125,15.71875 C18.3437478,15.2812478 18.125,14.7708363 18.125,14.1875 C18.125,13.6041637 18.3437478,13.0937522 18.78125,12.65625 C19.2187522,12.2187478 19.7291637,12 20.3125,12 L20.3125,12 Z M13.75,12 C14.3333363,12 14.8437478,12.2187478 15.28125,12.65625 C15.7187522,13.0937522 15.9375,13.6041637 15.9375,14.1875 C15.9375,14.7708363 15.7187522,15.2812478 15.28125,15.71875 C14.8437478,16.1562522 14.3333363,16.375 13.75,16.375 C13.1666637,16.375 12.6562522,16.1562522 12.21875,15.71875 C11.7812478,15.2812478 11.5625,14.7708363 11.5625,14.1875 C11.5625,13.6041637 11.7812478,13.0937522 12.21875,12.65625 C12.6562522,12.2187478 13.1666637,12 13.75,12 L13.75,12 Z"></path>
        </g>
    </g>
</svg>