<?xml version="1.0" encoding="UTF-8"?>
<svg width="28px" height="28px" viewBox="0 0 28 28" version="1.1" xmlns="http://www.w3.org/2000/svg" xmlns:xlink="http://www.w3.org/1999/xlink">
    <!-- Generator: Sketch 39 (31667) - http://www.bohemiancoding.com/sketch -->
    <title>share-active</title>
    <desc>Created with Sketch.</desc>
    <defs></defs>
    <g id="Page-1" stroke="none" stroke-width="1" fill="none" fill-rule="evenodd">
        <g id="share-active">
            <g id="Share-icon" transform="translate(2.000000, 2.000000)">
                <path d="M12,24 C18.627417,24 24,18.627417 24,12 C24,5.372583 18.627417,0 12,0 C5.372583,0 0,5.372583 0,12 C0,18.627417 5.372583,24 12,24 Z" id="Oval" fill="#1581E2"></path>
                <path d="M16.5652174,8.08695652 C17.461961,8.08695652 18.2296164,8.40624681 18.8682065,9.04483696 C19.5067967,9.68342711 19.826087,10.4510825 19.826087,11.3478261 L19.826087,12.6521739 C19.826087,13.5489175 19.5067967,14.3165729 18.8682065,14.955163 C18.2296164,15.5937532 17.461961,15.9130435 16.5652174,15.9130435 L12,15.9130435 C10.6141235,15.9130435 9.6222856,15.2608761 9.02445652,13.9565217 C8.83423818,13.4945629 8.73913043,13.0597846 8.73913043,12.6521739 L8.73913043,11.3478261 L10.6956522,11.3478261 L10.6956522,12.6521739 C10.6956522,13.0326106 10.8179336,13.3451075 11.0625,13.5896739 C11.3070664,13.8342404 11.6195633,13.9565217 12,13.9565217 L16.5652174,13.9565217 C16.9456541,13.9565217 17.258151,13.8342404 17.5027174,13.5896739 C17.7472838,13.3451075 17.8695652,13.0326106 17.8695652,12.6521739 L17.8695652,11.3478261 C17.8695652,10.9673894 17.7472838,10.6548925 17.5027174,10.4103261 C17.258151,10.1657596 16.9456541,10.0434783 16.5652174,10.0434783 L15.9130435,10.0434783 C15.8315213,9.66304158 15.6820663,9.30978424 15.4646739,8.98369565 C15.2472815,8.65760707 15.0434792,8.42663111 14.8532609,8.29076087 L14.6086957,8.08695652 L16.5652174,8.08695652 Z M15.0163043,10.0434783 C15.1793486,10.451089 15.2608696,10.8858673 15.2608696,11.3478261 L15.2608696,12.6521739 L13.3043478,12.6521739 L13.3043478,11.3478261 C13.3043478,10.9673894 13.1820664,10.6548925 12.9375,10.4103261 C12.6929336,10.1657596 12.3804367,10.0434783 12,10.0434783 L7.43478261,10.0434783 C7.05434592,10.0434783 6.74184905,10.1657596 6.49728261,10.4103261 C6.25271617,10.6548925 6.13043478,10.9673894 6.13043478,11.3478261 L6.13043478,12.6521739 C6.13043478,13.0326106 6.25271617,13.3451075 6.49728261,13.5896739 C6.74184905,13.8342404 7.05434592,13.9565217 7.43478261,13.9565217 L8.08695652,13.9565217 C8.16847867,14.3369584 8.3179337,14.6902158 8.53532609,15.0163043 C8.75271848,15.3423929 8.95652079,15.5733689 9.14673913,15.7092391 L9.39130435,15.9130435 L7.43478261,15.9130435 C6.53803899,15.9130435 5.77038363,15.5937532 5.13179348,14.955163 C4.49320333,14.3165729 4.17391304,13.5489175 4.17391304,12.6521739 L4.17391304,11.3478261 C4.17391304,10.4510825 4.49320333,9.68342711 5.13179348,9.04483696 C5.77038363,8.40624681 6.53803899,8.08695652 7.43478261,8.08695652 L12,8.08695652 C12.6521772,8.08695652 13.2567907,8.2703786 13.8138587,8.63722826 C14.3709267,9.00407792 14.7717379,9.47282323 15.0163043,10.0434783 L15.0163043,10.0434783 Z" id="" fill="#FFFFFF"></path>
            </g>
        </g>
    </g>
</svg>